<svg width="64" height="64" viewBox="0 0 64 64" fill="none" xmlns="http://www.w3.org/2000/svg">
  <rect width="64" height="64" rx="16" fill="#F7F8F4"/>
  <g transform="translate(12 8) scale(0.2)">
    <path d="M104.159 154.245L75.383 183.022L37.0135 144.652L36.6585 144.297C24.3122 131.766 19.5387 116.903 40.9616 90.9265C47.3945 97.8385 55.1896 105.273 63.5301 113.613L104.159 154.245Z" fill="#C9DB91"/>
    <path d="M36.6584 144.297L10.4274 117.948H10.4246C8.32066 115.556 6.5371 112.981 5.0739 110.28C5.03638 110.214 5.00175 110.147 4.96712 110.078C2.73335 105.763 0.998862 100.574 0.314879 94.9669C0.314879 94.9611 0.31199 94.9524 0.31199 94.9438C-0.943423 83.2295 2.76221 71.0852 11.4318 61.9163C11.4549 61.8904 11.4808 61.8644 11.5068 61.8384C11.7521 61.5816 12.0032 61.3247 12.2572 61.0707L34.3957 38.9322C16.1475 57.4661 23.6223 72.3002 40.9614 90.9265C19.5386 116.903 24.312 131.766 36.6584 144.297Z" fill="#C9DB91"/>
    <path d="M101.47 29.4142L51.9314 78.9496C47.689 83.192 44.0497 87.1747 40.9617 90.9265C23.6226 72.3002 16.1478 57.4661 34.3961 38.9322L73.3254 0L101.47 29.4142Z" fill="black"/>
    <path d="M159.207 153.864C152.774 146.953 144.979 139.518 136.638 131.178L96.0093 90.5455L124.786 61.7692L163.155 100.139L163.51 100.494C175.856 113.025 180.63 127.888 159.207 153.864Z" fill="#C9DB91"/>
    <path d="M188.737 182.875C188.714 182.901 188.688 182.927 188.662 182.953C188.416 183.209 188.165 183.466 187.911 183.72L165.773 205.859C184.021 187.325 176.546 172.491 159.207 153.864C180.63 127.888 175.856 113.025 163.51 100.494L189.741 126.843H189.744C191.848 129.235 193.631 131.81 195.095 134.511C195.132 134.577 195.167 134.644 195.201 134.713C197.435 139.028 199.17 144.217 199.854 149.824C199.854 149.83 199.856 149.839 199.856 149.847C201.112 161.561 197.406 173.706 188.737 182.875Z" fill="#C9DB91"/>
    <path d="M165.772 205.859L126.843 244.791L98.6987 215.377L148.237 165.841C152.479 161.599 156.119 157.616 159.207 153.865C176.546 172.491 184.021 187.325 165.772 205.859Z" fill="black"/>
  </g>
</svg>
