<svg width="1012" height="246" viewBox="0 0 1012 246" fill="none" xmlns="http://www.w3.org/2000/svg">
<g clip-path="url(#clip0_566_120)">
<g clip-path="url(#clip1_566_120)">
<path d="M104.159 154.245L75.383 183.022L37.0135 144.652L36.6585 144.297C24.3122 131.766 19.5387 116.903 40.9616 90.9265C47.3945 97.8385 55.1896 105.273 63.5301 113.613L104.159 154.245Z" fill="#C9DB91"/>
<path d="M36.6584 144.297L10.4274 117.948H10.4246C8.32066 115.556 6.5371 112.981 5.0739 110.28C5.03638 110.214 5.00175 110.147 4.96712 110.078C2.73335 105.763 0.998862 100.574 0.314879 94.9669C0.314879 94.9611 0.31199 94.9524 0.31199 94.9438C-0.943423 83.2295 2.76221 71.0852 11.4318 61.9163C11.4549 61.8904 11.4808 61.8644 11.5068 61.8384C11.7521 61.5816 12.0032 61.3247 12.2572 61.0707L34.3957 38.9322C16.1475 57.4661 23.6223 72.3002 40.9614 90.9265C19.5386 116.903 24.312 131.766 36.6584 144.297Z" fill="#C9DB91"/>
<path d="M101.47 29.4142L51.9314 78.9496C47.689 83.192 44.0497 87.1747 40.9617 90.9265C23.6226 72.3002 16.1478 57.4661 34.3961 38.9322L73.3254 0L101.47 29.4142Z" fill="black"/>
<path d="M159.207 153.864C152.774 146.953 144.979 139.518 136.638 131.178L96.0093 90.5455L124.786 61.7692L163.155 100.139L163.51 100.494C175.856 113.025 180.63 127.888 159.207 153.864Z" fill="#C9DB91"/>
<path d="M188.737 182.875C188.714 182.901 188.688 182.927 188.662 182.953C188.416 183.209 188.165 183.466 187.911 183.72L165.773 205.859C184.021 187.325 176.546 172.491 159.207 153.864C180.63 127.888 175.856 113.025 163.51 100.494L189.741 126.843H189.744C191.848 129.235 193.631 131.81 195.095 134.511C195.132 134.577 195.167 134.644 195.201 134.713C197.435 139.028 199.17 144.217 199.854 149.824C199.854 149.83 199.856 149.839 199.856 149.847C201.112 161.561 197.406 173.706 188.737 182.875Z" fill="#C9DB91"/>
<path d="M165.772 205.859L126.843 244.791L98.6987 215.377L148.237 165.841C152.479 161.599 156.119 157.616 159.207 153.865C176.546 172.491 184.021 187.325 165.772 205.859Z" fill="black"/>
</g>
<g clip-path="url(#clip2_566_120)">
<path d="M283.404 183.929C276.429 183.929 271.247 182.837 267.858 180.652C264.469 178.467 262.34 175.652 261.471 172.206C260.603 168.761 260.169 164.307 260.169 158.845L260.337 60.3577H277.186V155.904C277.186 159.938 277.382 162.949 277.774 164.937C278.166 166.898 279.231 168.481 280.967 169.685C282.704 170.89 285.491 171.492 289.329 171.492C291.401 171.492 293.264 171.324 294.917 170.988V183.089C290.323 183.649 286.485 183.929 283.404 183.929ZM341.429 184.433C332.466 184.433 324.931 182.304 318.824 178.047C312.69 173.789 308.152 168.243 305.211 161.408C302.27 154.573 300.799 147.276 300.799 139.517C300.799 131.758 302.27 124.461 305.211 117.627C308.152 110.82 312.718 105.288 318.908 101.03C325.071 96.7442 332.634 94.6014 341.598 94.6014C353.39 94.6014 362.788 98.4529 369.791 106.156C376.766 113.859 380.253 125.036 380.253 139.685V144.433H317.354V145.568C317.354 149.937 318.334 154.041 320.295 157.879C322.256 161.688 325.043 164.769 328.656 167.122C332.27 169.475 336.415 170.652 341.093 170.652C346.247 170.652 350.673 169.363 354.371 166.786C358.096 164.237 360.771 160.778 362.396 156.408H379.119C376.934 164.475 372.62 171.17 366.177 176.492C359.735 181.786 351.485 184.433 341.429 184.433ZM317.816 132.795H363.698C363.278 123.943 361.079 117.529 357.102 113.551C353.096 109.573 347.816 107.585 341.261 107.585C334.287 107.585 328.684 109.867 324.455 114.433C320.253 119.027 318.04 125.148 317.816 132.795ZM391.261 183.257V96.9123H408.11V112.164H409.455C409.763 110.848 410.855 108.817 412.732 106.072C414.581 103.355 417.41 100.764 421.219 98.2988C425.057 95.8339 429.875 94.6014 435.673 94.6014C441.892 94.6014 447.046 96.0299 451.135 98.8871C455.225 101.716 458.264 104.769 460.253 108.047C462.214 111.324 463.194 113.397 463.194 114.265H464.497C465.029 112.753 466.261 110.498 468.194 107.501C470.099 104.475 473.208 101.576 477.522 98.8031C481.836 96.0019 487.214 94.6014 493.656 94.6014C500.771 94.6014 506.64 96.4361 511.261 100.106C515.911 103.775 519.273 108.369 521.345 113.887C523.418 119.405 524.455 125.106 524.455 130.988V183.257H507.606V132.627C507.606 125.204 505.659 119.559 501.766 115.694C497.9 111.8 493.124 109.853 487.438 109.853C481.527 109.853 476.527 111.856 472.438 115.862C468.348 119.839 466.303 125.428 466.303 132.627V183.257H449.413V132.627C449.413 125.204 447.48 119.559 443.614 115.694C439.721 111.8 434.931 109.853 429.245 109.853C423.362 109.853 418.376 111.856 414.287 115.862C410.169 119.839 408.11 125.428 408.11 132.627V183.257H391.261ZM575.589 184.433C566.738 184.433 559.259 182.346 553.152 178.173C547.018 174.027 542.452 168.551 539.455 161.744C536.457 154.909 534.959 147.557 534.959 139.685C534.959 131.702 536.457 124.307 539.455 117.501C542.452 110.666 547.018 105.148 553.152 100.946C559.259 96.7162 566.738 94.6014 575.589 94.6014C584.441 94.6014 591.934 96.7162 598.068 100.946C604.175 105.148 608.754 110.666 611.808 117.501C614.861 124.307 616.387 131.646 616.387 139.517C616.387 147.388 614.861 154.741 611.808 161.576C608.754 168.383 604.175 173.901 598.068 178.131C591.934 182.332 584.441 184.433 575.589 184.433ZM575.589 170.316C583.124 170.316 588.992 167.374 593.194 161.492C597.424 155.582 599.539 148.201 599.539 139.349C599.539 130.498 597.424 123.187 593.194 117.416C588.992 111.618 583.124 108.719 575.589 108.719C568.166 108.719 562.326 111.646 558.068 117.501C553.81 123.327 551.682 130.61 551.682 139.349C551.682 148.201 553.782 155.582 557.984 161.492C562.186 167.374 568.054 170.316 575.589 170.316ZM627.228 183.257V96.9123H644.245V111.66H645.589C647.662 106.842 651.037 102.795 655.715 99.5173C660.421 96.24 666.219 94.6014 673.11 94.6014C680.533 94.6014 686.654 96.3801 691.471 99.9375C696.261 103.495 699.749 108.033 701.934 113.551C704.119 119.069 705.211 124.938 705.211 131.156V183.257H688.32V133.635C688.32 125.764 686.331 119.755 682.354 115.61C678.376 111.436 673.11 109.349 666.556 109.349C659.665 109.349 654.231 111.59 650.253 116.072C646.247 120.554 644.245 126.408 644.245 133.635V183.257H627.228ZM731.093 184.433C728.04 184.433 725.505 183.397 723.488 181.324C721.471 179.223 720.463 176.702 720.463 173.761C720.463 170.82 721.471 168.341 723.488 166.324C725.505 164.307 728.04 163.299 731.093 163.299C734.175 163.299 736.724 164.307 738.74 166.324C740.757 168.341 741.766 170.82 741.766 173.761C741.766 176.702 740.757 179.223 738.74 181.324C736.724 183.397 734.175 184.433 731.093 184.433ZM789.623 184.433C782.172 184.433 775.771 182.515 770.421 178.677C765.071 174.867 761.009 169.573 758.236 162.795C755.435 156.016 754.034 148.313 754.034 139.685C754.034 130.946 755.435 123.187 758.236 116.408C761.009 109.629 765.099 104.307 770.505 100.442C775.911 96.5481 782.382 94.6014 789.917 94.6014C797.48 94.6014 803.488 96.3521 807.942 99.8535C812.424 103.355 815.813 107.402 818.11 111.996H819.245V60.3577H836.471V183.257H819.245V166.576H818.11C815.701 171.366 812.214 175.54 807.648 179.097C803.054 182.655 797.046 184.433 789.623 184.433ZM795.169 170.316C802.928 170.316 808.852 167.374 812.942 161.492C817.06 155.582 819.119 148.313 819.119 139.685C819.119 131.058 817.06 123.789 812.942 117.879C808.852 111.996 802.928 109.055 795.169 109.055C787.214 109.055 781.261 111.968 777.312 117.795C773.39 123.649 771.429 130.89 771.429 139.517C771.429 148.257 773.418 155.582 777.396 161.492C781.373 167.374 787.298 170.316 795.169 170.316ZM887.942 184.433C878.978 184.433 871.429 182.304 865.295 178.047C859.189 173.789 854.665 168.243 851.724 161.408C848.754 154.573 847.27 147.276 847.27 139.517C847.27 131.758 848.754 124.461 851.724 117.627C854.665 110.82 859.217 105.288 865.379 101.03C871.569 96.7442 879.147 94.6014 888.11 94.6014C899.903 94.6014 909.287 98.4529 916.261 106.156C923.264 113.859 926.766 125.036 926.766 139.685V144.433H863.824V145.568C863.824 149.937 864.819 154.041 866.808 157.879C868.768 161.688 871.541 164.769 875.127 167.122C878.74 169.475 882.9 170.652 887.606 170.652C892.732 170.652 897.158 169.363 900.883 166.786C904.581 164.237 907.256 160.778 908.908 156.408H925.631C923.446 164.475 919.132 171.17 912.69 176.492C906.219 181.786 897.97 184.433 887.942 184.433ZM864.329 132.795H910.211C909.763 123.943 907.55 117.529 903.572 113.551C899.595 109.573 894.329 107.585 887.774 107.585C880.771 107.585 875.169 109.867 870.967 114.433C866.766 119.027 864.553 125.148 864.329 132.795ZM960.673 183.257L930.379 96.9123H946.597L970.841 165.736H971.682L995.757 96.9123H1011.98L981.513 183.257H960.673Z" fill="black"/>
</g>
</g>
<defs>
<clipPath id="clip0_566_120">
<rect width="1011.98" height="245.791" fill="white"/>
</clipPath>
<clipPath id="clip1_566_120">
<rect width="200.169" height="244.791" fill="white"/>
</clipPath>
<clipPath id="clip2_566_120">
<rect width="751.807" height="124.076" fill="white" transform="translate(260.169 60.3577)"/>
</clipPath>
</defs>
</svg>
