<svg width="48" height="48" viewBox="0 0 48 48" fill="none" xmlns="http://www.w3.org/2000/svg">
<path d="M10.11 35.9474C10.3324 34.6579 10.7887 33.3341 11.4233 32.1894L12.1384 30.9858C13.1886 29.1503 13.6783 27.221 13.8111 25.1317C13.9297 23.2671 13.8649 20.5603 13.1121 18.7949C12.8145 18.0969 12.3739 17.5208 11.9942 16.8721C11.4786 15.9912 11.1818 15.0419 11.0099 14.0417C10.8493 13.1074 10.8995 9.86357 11.7748 9.22016C11.848 9.16635 11.9445 9.12754 12.0237 9.07963L12.0252 6.10527C12.0278 4.99035 13.074 4.66225 13.4975 5.41007L13.5158 5.44349C13.712 5.79749 13.6557 7.90743 13.627 8.39629C16.73 7.53538 20.1497 9.72735 21.3479 12.5742C21.6818 13.3676 21.8519 14.2063 22.0192 15.0462C23.2523 15.6965 24.7215 15.8705 25.9375 15.0444C26.0814 14.9466 26.0473 14.782 26.0726 14.6242L26.1887 14.0415C26.8617 10.807 29.8494 8.11518 33.2295 8.22074C33.5333 8.23026 33.9685 8.21713 34.249 8.3548L34.2833 8.37285C34.3086 8.11091 34.2916 7.83313 34.2917 7.56946L34.2893 6.16405C34.2857 5.94726 34.2331 5.72202 34.2877 5.5086L34.307 5.43655C34.3602 5.24343 34.4773 5.0698 34.6558 4.9738L34.6881 4.95702C34.7931 4.90133 34.8887 4.87827 35.0038 4.8553C36.1472 4.76676 35.9701 5.72933 35.9706 6.4573L35.9728 8.77358C35.9786 9.39726 36.2683 9.03271 36.5461 9.67518L36.7508 10.3242C37.3554 12.257 37.1882 14.6573 36.2307 16.4373C35.9234 17.0085 35.5422 17.5347 35.2227 18.0982C34.6384 19.1288 34.4238 20.2004 34.2918 21.3661L34.1571 24.0845C34.1582 24.6347 34.154 25.1985 34.2088 25.7461L34.4113 27.1689C34.444 27.368 34.4964 27.5666 34.5472 27.7617L34.8497 28.8164C35.0914 29.593 35.4475 30.3789 35.8625 31.0781C36.2325 31.7015 36.6868 32.3319 36.9483 33.0115L37.5098 34.4904C37.8183 35.2865 37.986 36.3906 38.1089 37.2305L38.4102 40.6617C38.428 40.9405 38.4673 42.052 38.4059 42.2507L38.3681 42.3601C38.1868 42.7722 37.8472 42.8378 37.4506 42.8418L10.2425 42.8439C9.47717 42.8256 9.57711 41.8906 9.57795 41.4211C9.58091 39.7941 9.72866 37.5578 10.11 35.9474ZM14.9034 9.80859C15.2403 10.0429 15.6335 10.2238 15.99 10.429L19.2399 12.698C19.4512 12.8675 19.6362 13.0659 19.8585 13.2224C18.9456 11.4633 16.9913 9.76593 14.9034 9.80859ZM32.9621 9.80859C30.9578 10.0581 29.0119 11.2724 28.1942 13.1601C28.2431 13.1476 28.2234 13.1546 28.2542 13.1423C28.5738 12.912 28.8597 12.6324 29.1645 12.3824L30.7539 11.1936L32.4163 10.1409C32.5962 10.0333 32.8749 9.94434 33.0215 9.80859H32.9621ZM12.8433 10.7461C12.6558 11.5798 12.4756 12.9881 12.6877 13.844L12.8339 14.5078C13.098 15.9515 14.3778 17.1535 14.8285 18.5742L15.1275 19.5604C15.2355 19.8831 15.2379 20.2494 15.309 20.5809C16.9537 21.4039 19.2462 20.5983 20.5385 19.449C21.2794 18.7372 21.8649 17.8868 22.205 16.9121C21.4145 16.6761 20.4541 15.9606 19.8112 15.4315L17.2047 13.2703C16.1293 12.4505 14.9563 11.7119 13.7465 11.1089L13.0997 10.8131C13.0264 10.7819 12.9219 10.7297 12.8433 10.7461ZM35.0636 10.7461L33.8472 11.3032C32.7167 11.8712 31.6378 12.5954 30.6463 13.3784L28.5811 15.1455C27.7642 15.8545 27.0037 16.5047 25.9861 16.9212C26.2274 17.8584 26.9236 18.9685 27.6697 19.5557C29.0986 20.785 30.9307 21.2052 32.7109 20.5854C32.8489 19.5744 33.0673 18.6414 33.5023 17.711C33.8359 16.9979 34.3281 16.39 34.6964 15.6995C35.4272 14.3291 35.6487 12.2422 35.1071 10.7505L35.0636 10.7461ZM23.7837 17.2326L23.7291 17.5031C24.0045 17.5313 24.2854 17.5174 24.5615 17.5031C24.5541 17.4226 24.5553 17.288 24.4948 17.2294L23.7837 17.2326ZM22.922 19.1976C22.6365 19.5967 22.3599 20.0046 22.0233 20.3682C20.5397 21.9704 18.077 22.9477 15.8909 22.4989C15.7774 22.4755 15.6482 22.4674 15.5405 22.4258L15.5356 24.9726C15.455 27.3562 14.8434 29.6841 13.6618 31.7565L13.0098 32.8534C12.2774 34.1719 11.6915 35.8617 11.5939 37.3894C12.0282 37.4194 12.482 37.386 12.9191 37.3854L15.4847 37.3833C16.0488 37.3828 16.6432 37.3531 17.2034 37.4272C19.0234 37.6679 20.9492 38.4256 22.313 39.6898C23.0192 40.3445 23.8701 40.9681 24.8738 40.3443C25.2875 40.1007 25.613 39.7585 25.983 39.4576C28.279 37.5906 30.2303 37.3842 32.9968 37.3831L36.3984 37.382C36.2874 35.9749 35.8058 34.4424 35.1388 33.2104L33.9926 31.1836C32.8119 28.8307 32.4544 26.5348 32.4541 23.9555C32.454 23.4601 32.4359 22.9534 32.4873 22.4604L31.8276 22.5619C29.3394 22.8216 26.7802 21.5719 25.4056 19.4916C25.1585 19.1176 25.337 19.2018 24.8371 19.1981L22.922 19.1976ZM11.3509 39.0816L11.3128 40.447C11.3068 40.6808 11.2752 40.925 11.2917 41.1571L21.4101 41.1588L21.3875 41.1459C20.256 40.2084 19.4643 39.6817 17.9845 39.3038C17.4622 39.1704 16.91 39.0804 16.3716 39.0766L11.3509 39.0816ZM31.7063 39.0759C30.0057 39.1091 28.6254 39.6316 27.2397 40.6441C27.0417 40.7889 26.7425 40.9703 26.6103 41.174L31.6761 41.1568L36.719 41.1821L36.6281 39.0859L31.7063 39.0759Z" fill="black"/>
<path d="M24.1813 34.538C23.4679 34.6905 22.8841 34.0537 22.9813 33.3433L22.987 33.304C23.052 32.8365 23.4344 32.5918 23.8579 32.4628C25.1627 32.366 25.5587 34.159 24.1813 34.538Z" fill="black"/>
</svg>
