<svg width="48" height="48" viewBox="0 0 48 48" fill="none" xmlns="http://www.w3.org/2000/svg">
<path d="M25.5006 39.8835L24.2471 38.1375C23.5696 38.7337 22.927 39.396 22.3001 40.0449C21.0417 41.3474 20.9488 41.5163 18.9207 41.5126C17.1389 41.5093 15.3987 41.1896 13.8747 40.2273C12.4142 39.3052 13.1591 37.5768 13.3932 36.2329L14.387 31.0375C14.491 30.3588 14.4938 29.6928 14.5402 29.0106L14.6342 27.4347C14.65 27.2067 14.693 26.9826 14.7019 26.7535L14.7158 25.4705C14.7464 24.2789 14.7702 23.9115 14.5308 22.6976L9.01595 35.3889C8.45141 36.6985 8.19985 37.5962 6.54048 37.9692L6.17788 38.0215C4.82237 38.1414 3.29347 37.5871 2.08192 37.0278C0.126654 36.1252 0.542892 35.3669 1.36403 33.5654L10.6175 12.2853C11.1391 11.0215 11.5145 9.80238 13.1953 9.66852C13.5772 9.6381 13.9616 9.67106 14.3439 9.65304C16.2134 9.56502 17.8161 8.4743 19.1166 7.20725C19.8316 6.51066 19.5526 6.47628 20.7325 6.45419L27.1964 6.45228C28.4398 6.44988 28.105 6.47236 29.0081 7.31858C30.2714 8.50246 31.758 9.54695 33.5399 9.63614C34.173 9.66778 34.8374 9.56223 35.4379 9.79572C36.4644 10.1948 36.8619 10.9768 37.2412 11.933L46.0554 32.2428C46.2452 32.6144 46.3819 33.0249 46.5497 33.4082L47.0308 34.4996C47.2075 34.9322 47.3601 35.3838 47.2301 35.856C46.8571 37.2114 43.1244 38.0728 41.9287 38.0164C41.76 38.0085 41.5794 38.0098 41.4163 37.9621L41.2175 37.9065C39.6805 37.4236 39.3311 36.291 38.7613 34.9507L33.6768 23.1685C33.6169 23.0272 33.5671 22.8761 33.4962 22.7404C33.1408 23.7998 33.2427 24.8088 33.2831 25.8868L33.3211 27.1848C33.3329 27.3589 33.3691 27.5308 33.3781 27.706L33.4024 28.9236C33.4223 29.3078 33.4637 29.9599 33.5107 30.3264L34.3292 34.8563C34.4215 35.3004 34.4831 35.7551 34.5813 36.197L34.8859 37.8011C34.9554 38.1561 35.0917 38.6016 35.0115 38.9645L35.0052 38.9918C34.5925 41.064 30.6534 41.5109 29.0134 41.5131C27.2133 41.5154 26.5883 41.2391 25.5006 39.8835ZM25.2905 7.95649L21.1407 7.99841C21.2852 8.30336 21.3757 8.67644 21.4755 9.00112L21.762 9.88888C21.8414 10.126 21.9068 10.3725 21.9951 10.6052L22.9645 13.5426C23.0329 13.7178 23.0813 13.9046 23.1443 14.0828L23.5615 15.295C23.5931 15.3809 23.6099 15.4749 23.6462 15.5583L23.7576 15.9195C23.9796 16.5155 23.9129 16.8856 24.186 16.0507L25.986 10.5685C26.2714 9.7101 26.5035 8.79002 26.8952 7.97481C26.3715 7.91657 25.8176 7.95433 25.2905 7.95649ZM28.2052 8.63378L26.2555 14.4623L24.6589 19.8378L23.9999 22.5685C23.6652 23.9975 23.6829 24.5268 23.6822 25.9886L23.6831 31.3662C23.6837 32.3136 23.7207 33.3526 24.0418 34.2584L24.8169 36.2154C25.3381 37.311 26.1821 38.3753 26.9953 39.2651C27.8002 40.146 28.0713 39.9926 29.2885 39.9846C29.8042 39.9812 30.3249 39.9443 30.8338 39.8545C31.6348 39.7132 32.9624 39.3793 33.542 38.7384C33.528 38.4008 33.4281 38.0816 33.3631 37.7521L32.0651 30.7758C31.997 30.3442 31.9624 29.8678 31.9547 29.4296L31.7675 26.0353L31.7543 24.8174C31.7528 23.3745 31.9042 22.6786 32.3521 21.2634L32.6006 20.5327C32.7193 20.1967 32.8473 19.7857 33.2557 19.7169L33.3137 19.7077C33.8835 19.6217 34.0592 20.1994 34.2145 20.6215L34.4637 21.2271L36.4718 25.858C36.5281 25.9881 36.5978 26.1169 36.643 26.2511L40.6784 35.6103C40.7871 35.8711 40.9929 36.0976 41.2297 36.2477L41.2641 36.2703C42.2735 36.9264 44.8317 35.959 45.774 35.3861C45.6407 34.9768 45.4504 34.5844 45.2775 34.1906L35.9944 12.8105C35.5706 11.79 35.5756 11.1711 34.3116 11.1735L33.527 11.1718C32.1897 11.134 30.7359 10.5279 29.6515 9.78906C29.4661 9.66274 28.2544 8.64254 28.2052 8.63378ZM19.7791 8.64852C18.0058 10.2384 16.1844 11.2048 13.785 11.1818C13.2671 11.1768 12.8102 11.1626 12.493 11.6705L6.66679 25.0112L2.4584 34.7827C2.38292 34.9567 2.2596 35.1646 2.22522 35.3465C2.98176 35.947 5.13917 36.6267 5.98608 36.5286L6.36327 36.4453C7.25553 36.2237 7.50616 35.1361 7.81958 34.4125L13.5791 21.1049L13.8888 20.3775C14.0596 19.9642 14.3193 19.4824 14.8999 19.7548C15.1145 19.8554 15.2024 20.0281 15.2753 20.2412L16.0072 22.5536C16.1822 23.0912 16.2249 23.7424 16.2391 24.3072L16.2245 26.0481L16.0477 28.615C16.0145 29.3557 16.0132 30.0969 15.9178 30.8338C15.77 31.9757 15.5156 33.1039 15.2917 34.2323L14.5574 38.0385C14.4867 38.4171 14.3351 38.7037 14.6947 38.9495C15.9101 39.7808 17.4509 39.984 18.8882 39.9868C20.2613 39.9895 20.1811 40.0676 21.0641 39.1571L22.5362 37.6608C22.8184 37.3789 23.1073 37.0445 23.4419 36.8263C22.4867 34.8323 22.1839 33.3302 22.1829 31.1774L22.1835 26.2678C22.1841 25.155 22.175 24.0941 22.3719 22.9972L23.1472 19.6787C23.2694 19.1829 23.3063 19.0824 23.1329 18.6166L20.0046 9.33982C19.9265 9.1101 19.8658 8.87505 19.7791 8.64852Z" fill="black"/>
<path d="M25.3764 27.9008L25.1268 27.8935C24.7284 27.8446 24.349 27.3918 24.4306 26.9835L24.4376 26.9519C24.5145 26.5963 24.7873 26.428 25.13 26.3568C26.1898 26.3083 26.4013 27.6082 25.3764 27.9008Z" fill="black"/>
<path d="M25.3802 31.0383C25.0035 31.0737 24.6013 30.9322 24.4902 30.5284L24.4822 30.4972C24.434 30.3325 24.4208 30.1927 24.4758 30.0267L24.5259 29.896C24.6543 29.6541 24.8791 29.5575 25.1279 29.4892C26.1587 29.4302 26.4101 30.7514 25.3802 31.0383Z" fill="black"/>
</svg>
