<svg width="48" height="48" viewBox="0 0 48 48" fill="none" xmlns="http://www.w3.org/2000/svg">
<path d="M2.55503 28.928L2.55078 27.9443C2.55744 24.8194 4.60716 21.4657 6.53332 19.1586C6.69242 18.9681 7.08945 18.439 7.29078 18.3444C7.48081 18.2551 7.4562 18.1437 7.46361 17.9651L7.44734 15.7503C7.44054 15.5569 7.45128 15.367 7.43168 15.1735L6.83431 10.7854C6.71656 10.0346 6.55343 9.27476 6.48523 8.51796C6.38454 7.39999 7.78812 7.22116 8.0517 8.06824L8.06304 8.10968C8.12436 8.31171 8.12736 8.52246 8.15604 8.73077L9.00045 14.8245C9.11848 15.8515 9.1617 16.7791 9.06879 17.8246L11.4309 18.6647C16.169 20.7336 20.6214 24.8445 22.5319 29.7358C22.6088 29.7619 22.7088 29.7464 22.7908 29.7445L25.4604 29.7415C25.5869 29.4573 25.6741 29.162 25.8089 28.875L26.2287 28.0081C28.6002 23.593 33.433 19.5133 38.2724 18.017L38.8817 17.851C38.8795 17.0299 38.856 16.1981 38.9172 15.3792L39.8188 8.75299C39.8963 8.17259 39.8682 7.73712 40.5158 7.5274C40.9167 7.51437 41.2617 7.62185 41.4265 8.02432L41.4373 8.05109C41.5196 8.22987 41.501 8.49185 41.4809 8.68512L40.5515 15.4757C40.4935 16.0708 40.5174 16.6961 40.5163 17.2945C40.5147 18.2156 40.4274 18.0086 41.0112 18.6699L41.9156 19.7452C43.1607 21.2891 44.7309 23.8944 45.1584 25.8885L45.3568 27.0047C45.4448 27.5871 45.5289 29.0237 45.4128 29.6253L45.2293 30.6104C45.0107 31.5302 44.6082 32.3869 44.1222 33.193C44.1207 33.2291 44.1173 33.2198 44.1274 33.2488L44.1896 33.4003C44.2448 33.5779 44.2269 33.8568 44.2274 34.0445L44.2283 36.5704C44.2263 38.1297 44.0408 37.9558 42.6202 38.7399C40.6589 39.8225 38.4634 40.3724 36.2315 40.4745L33.5819 40.4728C30.404 40.3194 27.5442 38.4149 25.2671 36.3143L23.9847 35.0105L22.7362 36.333C21.4979 37.5005 20.1053 38.5047 18.5876 39.278C16.5015 40.3409 15.3863 40.4787 13.1198 40.4802L11.661 40.4703C9.34971 40.3393 7.14757 39.7721 5.14156 38.5982C4.07286 37.9727 3.77019 37.9846 3.7684 36.7729L3.76745 34.1916C3.76768 33.8846 3.68364 33.5119 3.88453 33.2554C3.91365 33.2182 3.82192 33.094 3.79318 33.0482C3.01047 31.8012 2.66563 30.3896 2.55503 28.928ZM8.54548 19.4207C6.4302 21.5779 5.24609 23.6315 4.42325 26.4747C4.13408 27.4739 4.06604 29.4365 4.45369 30.4691L5.07959 31.9846C6.05984 33.7881 7.81245 34.9133 9.74759 35.4701C11.7051 36.0334 14.403 36.0694 16.2354 35.2193C18.0327 34.4086 19.9804 32.6303 21.2131 31.1574C19.9939 26.2811 14.4799 21.5074 9.98515 19.8631C9.50768 19.6884 9.03336 19.5588 8.54548 19.4207ZM39.4304 19.4417C36.912 20.1616 35.1762 21.065 33.0657 22.7063L31.6854 23.8394C29.4835 25.8264 27.8003 28.0463 26.8313 30.8446L26.7481 31.1701C26.9599 31.4886 27.2699 31.7846 27.539 32.0553C28.7376 33.2613 30.2622 34.5767 31.8381 35.274C32.4224 35.536 33.0228 35.6816 33.6498 35.7984C35.3493 36.1149 37.5427 35.7533 39.1285 35.1735C41.9252 34.151 43.8012 31.5428 43.8056 28.576C43.8099 25.6726 42.519 23.1559 40.7352 20.9201L39.4304 19.4417ZM22.8093 31.3934C22.7146 32.1009 22.6964 32.0304 22.1988 32.5922C20.5872 34.4113 18.0695 36.5885 15.681 37.1921L14.8624 37.3681C14.5118 37.4261 14.1533 37.4881 13.7983 37.4916L13.0505 37.4955C10.7964 37.4991 8.90567 37.247 6.88179 36.0735L5.35526 35.0345C5.28331 35.1089 5.31842 35.4794 5.31917 35.5923L5.3194 36.7149C5.41526 36.8447 5.60018 36.9039 5.73748 36.9917C9.09687 39.142 14.3082 39.6833 17.8837 37.7589C19.6557 36.8052 21.1358 35.6316 22.5116 34.1608L23.0732 33.5206C23.6645 32.8177 24.211 32.6448 24.8015 33.4577C26.2519 35.0939 27.8261 36.4617 29.7231 37.5512C31.9369 38.8226 33.7422 39.0714 36.3233 38.8446C39.0769 38.6027 40.3723 38.0761 42.6451 36.7507L42.6515 35.0128C41.0966 36.2583 39.5304 36.9402 37.5481 37.3061C34.715 37.8291 31.9226 37.5296 29.5129 35.8496L27.0276 33.9025L25.564 32.3968C25.414 32.2216 25.2589 32.0419 25.1937 31.8167L25.1842 31.786C25.1476 31.6601 25.1442 31.5211 25.1339 31.3907L22.8093 31.3934Z" fill="black"/>
</svg>
