<svg width="48" height="48" viewBox="0 0 48 48" fill="none" xmlns="http://www.w3.org/2000/svg">
<path d="M24 5.78223C12.1448 5.78223 2.5 12.855 2.5 21.549V25.1321C2.5 30.8342 6.67166 36.0579 13.4055 38.8471C13.9301 40.8788 15.7469 42.3105 17.8449 42.345C19.9432 42.3794 21.8062 41.0084 22.3971 38.9948C22.9879 36.9811 22.1612 34.8208 20.3772 33.7162C18.5928 32.6113 16.2905 32.8341 14.7515 34.2605C8.87461 32.0769 4.91652 28.0253 4.09833 23.3386C5.35088 16.1812 13.875 10.799 24 10.799C34.125 10.799 42.6468 16.1789 43.9027 23.3405C43.0854 28.0263 39.1244 32.0759 33.2485 34.2605C31.7108 32.8373 29.4121 32.6162 27.631 33.7198C25.85 34.8238 25.0249 36.9808 25.6151 38.9912C26.2049 41.0019 28.0647 42.3709 30.1597 42.3374C32.2547 42.3036 34.0693 40.8756 34.5945 38.8471C41.3283 36.0579 45.5 30.8342 45.5 25.1321V21.549C45.5 12.855 35.8552 5.78223 24 5.78223ZM21.1334 37.674C21.1334 39.455 19.6896 40.8988 17.9082 40.8988C16.1271 40.8988 14.6833 39.455 14.6833 37.674C14.6833 35.8929 16.1271 34.4488 17.9082 34.4488C19.6886 34.4508 21.1314 35.8936 21.1334 37.674ZM13.8235 35.4379C13.5193 35.9913 13.332 36.6009 13.2723 37.2295C8.59674 35.1154 5.38303 31.7327 4.32043 27.9157C6.22156 31.1012 9.53041 33.7536 13.8235 35.4379ZM24 9.36567C15.2774 9.36567 7.65356 13.1998 4.31026 18.7896C6.11625 12.2021 14.2532 7.21554 24 7.21554C33.7468 7.21554 41.8867 12.2044 43.6904 18.7932C40.3471 13.1998 32.7232 9.36567 24 9.36567ZM30.0918 40.8988C28.3104 40.8988 26.8666 39.455 26.8666 37.674C26.8666 35.8929 28.3104 34.4488 30.0918 34.4488C31.8729 34.4488 33.3167 35.8929 33.3167 37.674C33.3147 39.4541 31.8719 40.8969 30.0918 40.8988ZM34.7277 37.2324C34.668 36.6038 34.4807 35.9943 34.1765 35.4408C38.4696 33.7566 41.7778 31.1048 43.6789 27.9216C42.616 31.7341 39.4019 35.1154 34.7277 37.2324Z" fill="black"/>
<path d="M17.9078 39.4654C18.3037 39.4654 18.6246 39.1446 18.6246 38.7489C18.6246 38.3529 18.3037 38.0321 17.9078 38.0321C17.7099 38.0321 17.5495 37.8717 17.5495 37.6739C17.5495 37.2779 17.2287 36.957 16.833 36.957C16.4371 36.957 16.1162 37.2779 16.1162 37.6739C16.1162 38.6633 16.9183 39.4654 17.9078 39.4654Z" fill="black"/>
<path d="M30.0917 38.0321C29.8935 38.0321 29.7331 37.8717 29.7331 37.6739C29.7331 37.2779 29.4123 36.957 29.0166 36.957C28.6207 36.957 28.2998 37.2779 28.2998 37.6739C28.2998 38.6633 29.1019 39.4654 30.0917 39.4654C30.4873 39.4654 30.8082 39.1446 30.8082 38.7489C30.8082 38.3529 30.4873 38.0321 30.0917 38.0321Z" fill="black"/>
</svg>
