<svg width="48" height="48" viewBox="0 0 48 48" fill="none" xmlns="http://www.w3.org/2000/svg">
<path d="M33.7912 40.4544L32.4037 40.4818C31.2363 40.4818 30.1031 40.4489 28.9416 40.3204L28.3728 40.2825C26.629 40.0963 26.5191 39.3918 25.9484 37.9236C25.4562 36.6575 25.0383 35.3646 24.6906 34.0515L23.4063 34.1539L21.7728 38.6141C21.3677 39.6435 21.1644 40.0731 20.0604 40.2129L19.0171 40.3248C18.5503 40.3748 18.0677 40.4573 17.5995 40.4759C12.7248 40.6696 5.53855 39.5758 1.80601 36.3816C1.49691 36.1171 0.947099 35.69 1.08399 35.2205C1.21508 34.7709 1.30392 34.3034 1.4079 33.8466L4.58677 19.9675C4.94909 18.6257 5.42478 17.2763 5.96113 15.9939C6.23024 15.3503 6.57556 14.7342 6.82747 14.0866C7.29542 12.8833 7.3017 10.9679 7.24813 9.62319L7.24138 8.75595C7.22736 8.18891 7.14284 7.78048 7.75972 7.52764L40.0086 7.51606C40.1187 7.51662 40.2583 7.50261 40.3591 7.55225L40.383 7.56514C40.5078 7.62997 40.5987 7.71519 40.6718 7.83575L40.6882 7.86331C40.8048 8.05278 40.782 8.26569 40.7818 8.47845L40.7263 10.5339C40.6949 11.478 40.822 12.6066 41.0566 13.5352L41.5475 15.0236L43.4211 20.111L44.3699 23.9649L45.0038 27.2871L46.8183 34.8024C46.8831 34.9988 46.9928 35.3555 46.8897 35.5523L46.8756 35.5782C46.4279 36.4886 44.7108 37.4741 43.8526 37.9329L42.1935 38.7275C39.9758 39.6769 37.6927 40.2344 35.2859 40.4147L33.7912 40.4544ZM8.91838 8.98175L8.6967 8.9953C8.66019 9.17009 8.71142 10.1393 8.74344 10.3281C9.34784 10.4139 9.94564 10.3899 10.547 10.4533L17.6428 11.1563C18.113 11.1851 18.5768 11.2503 19.0455 11.2636L21.2906 11.3562L26.9897 11.3584L28.9562 11.268C29.5527 11.2632 30.1729 11.1837 30.7896 11.1559L38.2088 10.4931L38.7997 10.4241C38.9305 10.4142 39.0866 10.4192 39.2104 10.3799L39.2882 9.41108C39.3041 9.27575 39.3095 9.12172 39.3504 8.99201L8.91838 8.98175ZM8.72553 11.7539L8.40556 14.0121C8.6383 14.0522 8.87234 14.0621 9.10564 14.094L14.027 14.8076L17.5073 15.1808L20.1776 15.345C20.321 15.3533 20.4624 15.3821 20.6063 15.3884L26.3406 15.3897L29.9523 15.1835L36.3283 14.5285L39.1588 14.1581L39.6693 14.0525C39.4687 13.4936 39.3063 12.4491 39.2984 11.8648L35.8713 12.2573L27.669 12.8288L20.5798 12.8288L18.397 12.7296C18.2618 12.7208 18.1323 12.6903 17.9984 12.6776L15.9077 12.5263L9.04006 11.781C8.942 11.7702 8.82247 11.7459 8.72553 11.7539ZM7.83528 15.3862C7.31342 16.4027 6.95127 17.4789 6.60406 18.5633L5.17442 23.8085L2.59708 35.1634C4.36806 36.8441 7.052 37.6053 9.36406 38.0977L11.9366 38.6178L15.5989 38.9935L16.9279 39.0021C17.7483 38.9997 19.2381 38.9094 20.0754 38.7608L21.3594 35.5356L21.8253 34.0947C22.0573 33.3768 22.1361 33.2926 22.0687 32.535C21.7687 29.1634 19.475 27.1247 16.9335 25.1602C16.4372 24.7766 15.9185 24.4257 15.4473 24.0088C13.4327 22.2263 12.1944 19.8478 11.5157 17.2694L11.2892 16.3065C11.2639 16.1767 11.2685 16.0256 11.2228 15.9027L7.83528 15.3862ZM40.1252 15.5007L36.6625 15.973C36.2774 19.0325 34.5941 22.4256 32.1252 24.3081C29.1787 26.5547 27.1008 28.9786 25.8539 32.472C25.8718 32.547 25.891 32.6181 25.9156 32.6912L26.0033 33.0408C26.1286 33.4384 26.073 33.8858 26.1951 34.2817L26.3467 34.8366C26.3557 34.8761 26.3671 34.907 26.3823 34.9441L27.5598 37.8985C27.9841 38.844 27.8195 38.7463 28.8024 38.851L31.1212 38.9985L35.426 38.9074C36.6673 38.8028 37.9673 38.5597 39.1674 38.2135L40.2673 37.8558C42.0252 37.2748 43.7515 36.528 45.1846 35.333C45.3748 35.1745 45.4122 35.2018 45.3431 34.9498L43.4298 26.8711L42.5847 22.6385C42.2181 21.0903 41.7884 19.5567 41.2352 18.0634L40.4368 16.0507C40.3715 15.89 40.3108 15.6226 40.2072 15.4921L40.1252 15.5007ZM12.769 16.1367C12.7437 16.361 12.9007 16.882 12.9771 17.0858L13.0797 17.4375C14.2492 20.9332 15.4161 22.2212 18.2294 24.3392C21.3108 26.659 23.118 28.8381 23.5933 32.7003L24.264 32.6169C24.4585 32.0995 24.5934 31.5632 24.8088 31.0521C25.5902 29.1977 27.1261 26.7669 28.5458 25.4373C29.0127 24.9912 29.4731 24.5337 29.9719 24.1229C30.6151 23.5932 31.3121 23.1002 31.9198 22.532C33.6184 20.9435 34.7225 18.4692 35.1298 16.1799C34.7725 16.1789 34.4071 16.2388 34.0524 16.2782L30.1642 16.6495L26.7312 16.8651L20.7898 16.8668L16.2306 16.5524L12.769 16.1367Z" fill="black"/>
</svg>
