<svg width="48" height="48" viewBox="0 0 48 48" fill="none" xmlns="http://www.w3.org/2000/svg">
<path d="M45.9146 5.09346C45.7545 4.96459 45.5705 4.86854 45.3732 4.8108C45.1759 4.75307 44.9691 4.73478 44.7647 4.75698C44.5603 4.77918 44.3623 4.84144 44.182 4.94019C44.0017 5.03895 43.8426 5.17226 43.7139 5.33253L40.2169 9.68276C36.4485 14.3661 31.5687 18.0326 26.0215 20.3485V20.1214C26.0215 19.5852 25.8085 19.071 25.4294 18.6919C25.0503 18.3128 24.5361 18.0999 24 18.0999C23.4639 18.0999 22.9497 18.3128 22.5706 18.6919C22.1915 19.071 21.9785 19.5852 21.9785 20.1214V20.3485C16.4313 18.0326 11.5515 14.3661 7.78312 9.68276L4.28648 5.33147C4.08325 5.07887 3.80663 4.89557 3.49479 4.80685C3.18296 4.71813 2.85128 4.72837 2.54551 4.83616C2.23974 4.94395 1.97496 5.14397 1.78769 5.40862C1.60043 5.67328 1.49991 5.98953 1.5 6.31374V7.76815C1.50041 8.12481 1.62216 8.47072 1.84523 8.74901L4.63207 12.2158C9.17705 17.8682 15.1729 22.179 21.9785 24.6871V28.6246L18.9593 30.4151C18.5176 30.6787 18.1492 31.0491 17.8881 31.4923C17.8772 31.5078 17.8649 31.5215 17.8554 31.538C17.8459 31.5545 17.8406 31.5731 17.8329 31.589C17.5846 32.04 17.4537 32.5461 17.4521 33.061V38.1168C17.4538 38.6313 17.5846 39.1372 17.8325 39.5881C17.8393 39.6056 17.8469 39.6227 17.8554 39.6394C17.8603 39.6485 17.868 39.6545 17.8733 39.663C18.1357 40.1162 18.5095 40.4948 18.9593 40.763L22.431 42.8217C22.9058 43.1037 23.4478 43.2524 24 43.2524C24.5522 43.2524 25.0942 43.1037 25.569 42.8217L29.0407 40.763C29.4904 40.4947 29.8641 40.1159 30.1263 39.6626C30.1327 39.6552 30.1387 39.6474 30.1443 39.6394C30.1537 39.6229 30.1594 39.6042 30.1671 39.5884C30.4151 39.1375 30.5459 38.6314 30.5475 38.1168V33.0599C30.546 32.5451 30.4151 32.0389 30.1668 31.5879C30.159 31.571 30.1537 31.5528 30.1443 31.5369C30.1348 31.5211 30.1228 31.5071 30.1119 31.4916C29.8507 31.0482 29.4822 30.6777 29.0403 30.414L26.0215 28.6235V24.686C32.8271 22.1778 38.8231 17.8671 43.3683 12.2147L46.1541 8.74831C46.3774 8.47038 46.4994 8.12468 46.5 7.76815V6.31374C46.5006 6.0794 46.4482 5.84795 46.3469 5.63666C46.2455 5.42537 46.0978 5.23969 45.9146 5.09346ZM24 39.0512L21.4951 37.5652V33.6105L24 32.1244L26.5049 33.6105V37.5652L24 39.0512ZM23.209 20.1214C23.209 19.9116 23.2923 19.7104 23.4407 19.562C23.589 19.4137 23.7902 19.3303 24 19.3303C24.2098 19.3303 24.411 19.4137 24.5593 19.562C24.7077 19.7104 24.791 19.9116 24.791 20.1214V28.028C24.7 28.0037 24.6075 27.9893 24.515 27.9735C24.4774 27.9672 24.4405 27.9563 24.4025 27.9514C24.1354 27.9157 23.8646 27.9157 23.5975 27.9514C23.5595 27.9563 23.5226 27.9672 23.485 27.9735C23.3925 27.9893 23.3 28.0037 23.209 28.028V20.1214ZM5.59113 11.4448L2.80395 7.97768C2.75605 7.91784 2.73011 7.84339 2.73047 7.76674V6.31374C2.73036 6.26359 2.74155 6.21407 2.76322 6.16884C2.78489 6.12362 2.81647 6.08386 2.85562 6.05253C2.91488 6.00475 2.98869 5.9787 3.0648 5.9787C3.0771 5.978 3.08942 5.978 3.10172 5.9787C3.14598 5.98351 3.18883 5.99716 3.22772 6.01884C3.26661 6.04052 3.30076 6.06979 3.32812 6.10491L6.82477 10.4551C10.8302 15.4343 16.0485 19.3002 21.9785 21.6816V23.3779C15.5547 20.9234 9.89899 16.805 5.59113 11.4448ZM23.0321 29.429L23.0578 29.4135C23.1615 29.3537 23.2708 29.3041 23.3841 29.2655V31.0585L20.8732 32.5477L19.3242 31.666C19.4055 31.5935 19.4933 31.5287 19.5865 31.4722L23.0321 29.429ZM18.7153 38.4406C18.6947 38.3335 18.6837 38.2248 18.6826 38.1157V33.0599C18.6837 32.9509 18.6947 32.8421 18.7153 32.7351L20.2646 33.6175V37.5581L18.7153 38.4406ZM19.5868 39.7037C19.4937 39.647 19.4058 39.582 19.3242 39.5097L20.8739 38.6272L23.3848 40.1165V41.9094C23.2715 41.8707 23.1622 41.821 23.0585 41.7611L19.5868 39.7037ZM24.9415 41.7625C24.8378 41.8224 24.7285 41.8721 24.6152 41.9108V40.1179L27.1261 38.6287L28.6758 39.5111C28.5942 39.5834 28.5063 39.6484 28.4132 39.7051L24.9415 41.7625ZM29.2847 32.7351C29.3053 32.8421 29.3163 32.9509 29.3174 33.0599V38.1157C29.3163 38.2248 29.3053 38.3335 29.2847 38.4406L27.7353 37.5581V33.6175L29.2847 32.7351ZM28.6758 31.666L27.1264 32.5484L24.6152 31.0592V29.2662C24.6272 29.2704 24.6391 29.2739 24.6504 29.2785C24.6725 29.2866 24.6954 29.2922 24.7172 29.3014C24.7478 29.3144 24.777 29.3319 24.8068 29.3467C24.8518 29.3689 24.8979 29.3889 24.9415 29.4146L24.9671 29.43L28.4125 31.4733C28.5059 31.5294 28.5941 31.5938 28.6758 31.666ZM45.2695 7.76815C45.2698 7.84491 45.2436 7.91942 45.1953 7.97909L42.4092 11.4458C38.101 16.8057 32.4453 20.9237 26.0215 23.3779V21.6816C31.9519 19.3 37.1704 15.4338 41.1759 10.4541L44.6719 6.10491C44.6993 6.0705 44.7334 6.04185 44.7719 6.02062C44.8105 5.99939 44.8529 5.98598 44.8967 5.98118C44.9405 5.97638 44.9847 5.98027 45.027 5.99264C45.0693 6.005 45.1087 6.02559 45.143 6.05323C45.1821 6.08456 45.2137 6.12432 45.2354 6.16955C45.257 6.21477 45.2682 6.26429 45.2681 6.31444L45.2695 7.76815Z" fill="black"/>
</svg>
