<svg width="48" height="48" viewBox="0 0 48 48" fill="none" xmlns="http://www.w3.org/2000/svg">
<path d="M27.4605 10.7268C26.2776 11.5948 24.8806 12.1242 23.4195 12.2581C23.1571 11.1797 22.6719 10.1683 21.9953 9.2886C20.9745 7.90912 19.1997 7.21461 17.0032 7.35761C16.5008 7.38834 16.0269 7.60128 15.6703 7.95652C15.3137 8.31175 15.099 8.78486 15.0663 9.28714L14.3704 18.0943L8.19165 32.9731L3.75177 36.7713C2.79344 37.598 2.18166 38.7554 2.03828 40.013C1.8949 41.2705 2.23043 42.5359 2.97806 43.5572L3.89698 44.7959C4.14007 45.1229 4.44939 45.3949 4.80474 45.5941C5.1601 45.7934 5.5535 45.9155 5.95924 45.9524C6.301 45.9832 6.69776 46.0038 7.14218 46.0038C10.5581 45.9677 13.8702 44.8254 16.5822 42.7483L41.2098 24.5378C42.3583 23.6878 45.1151 21.4106 45.9093 18.6289V18.6245C46.0545 18.1323 46.0355 17.6062 45.8553 17.1257C45.6751 16.6452 45.3435 16.2363 44.9105 15.9609C43.8537 15.248 43.0185 14.2527 42.4999 13.0882C40.3638 8.94943 37.3118 5.35239 33.5761 2.57085C33.0724 2.2099 32.4685 2.01513 31.8488 2.01368C31.2291 2.01223 30.6244 2.20419 30.119 2.56278C29.7139 2.86417 29.3951 3.26671 29.1946 3.73007C28.9941 4.19343 28.9188 4.70135 28.9763 5.20295C29.1443 6.72104 29.1692 9.46388 27.4605 10.7268ZM16.5287 9.40668C16.5342 9.25716 16.5948 9.11498 16.699 9.00757C16.8031 8.90017 16.9434 8.83516 17.0927 8.82511C18.2844 8.75617 19.8993 8.92485 20.8153 10.1643C21.3081 10.8069 21.6832 11.5316 21.9234 12.305C21.516 12.2869 21.1099 12.2467 20.7068 12.1847C20.4489 12.1411 20.1879 12.1188 19.9265 12.118C18.941 12.1142 17.9805 12.4279 17.1873 13.0127C16.7899 13.3132 16.4432 13.6754 16.1605 14.0856L16.5287 9.40668ZM11.5909 28.6139L15.5988 27.4691C15.779 27.4104 15.9295 27.2842 16.0187 27.117C16.1079 26.9498 16.1289 26.7545 16.0773 26.5721C16.0258 26.3897 15.9056 26.2344 15.742 26.1387C15.5784 26.043 15.3841 26.0144 15.1998 26.0588L12.3103 26.8824L13.0628 25.0709L16.6196 24.0567C16.8068 24.0033 16.965 23.8777 17.0596 23.7077C17.1541 23.5376 17.1772 23.3369 17.1238 23.1498C17.0705 22.9627 16.9449 22.8045 16.7749 22.7099C16.6048 22.6154 16.4041 22.5922 16.217 22.6456L13.7815 23.3401L14.5332 21.5309L17.6398 20.6442C17.8269 20.5909 17.9851 20.4653 18.0797 20.2953C18.1742 20.1252 18.1974 19.9245 18.144 19.7374C18.0906 19.5503 17.965 19.3921 17.795 19.2975C17.6249 19.203 17.4243 19.1798 17.2371 19.2332L15.2519 19.8001L16.0065 17.9872L18.6621 17.2311C18.7548 17.2048 18.8413 17.1604 18.9168 17.1006C18.9923 17.0408 19.0553 16.9668 19.1022 16.8826C19.1491 16.7985 19.179 16.7059 19.1901 16.6103C19.2012 16.5146 19.1934 16.4177 19.167 16.325C19.1407 16.2324 19.0964 16.1458 19.0366 16.0703C18.9768 15.9948 18.9027 15.9318 18.8186 15.8849C18.7344 15.838 18.6419 15.8081 18.5462 15.797C18.4505 15.7859 18.3536 15.7937 18.2609 15.8201L16.7253 16.2601L17.0406 15.5003C17.2548 14.9784 17.6072 14.5248 18.06 14.1883C18.6013 13.7919 19.2555 13.5795 19.9265 13.5825C20.1098 13.5837 20.2928 13.5997 20.4736 13.6302C21.0663 13.7232 21.6652 13.7723 22.2652 13.7769L17.5378 27.3253C17.3443 27.8797 17.0382 28.388 16.6389 28.8185C16.2396 29.2489 15.7557 29.5923 15.2174 29.8269L10.1776 32.0175L11.5909 28.6139ZM25.1584 34.5843L15.7088 41.569C12.9726 43.695 9.54764 44.7356 6.09125 44.4908C5.89101 44.474 5.69667 44.4145 5.52124 44.3165C5.34582 44.2185 5.19335 44.0841 5.07405 43.9224L4.68976 43.4039C4.99851 43.4351 5.30863 43.4508 5.61895 43.4509C7.62108 43.4509 10.4857 42.826 13.8929 40.3061C15.8849 38.8332 17.6797 37.1109 19.2334 35.1813C21.1761 32.7446 23.5407 30.6767 26.2144 29.0759C25.6093 30.8544 25.2532 32.7082 25.1562 34.5843H25.1584ZM26.6985 33.4446C27.0423 30.2999 28.1645 27.2904 29.9635 24.6882C31.7626 22.086 34.1818 19.9733 37.0025 18.5409C37.0025 18.5482 37.0061 18.5563 37.0091 18.5636L39.306 24.1227L26.6985 33.4446ZM44.1529 17.2157C44.312 17.3248 44.4316 17.4825 44.4937 17.6652C44.5558 17.8478 44.5572 18.0457 44.4976 18.2292C44.0451 19.8104 42.5607 21.6622 40.5168 23.2162L38.3636 18.0033C38.1836 17.5669 38.1543 17.0828 38.2805 16.6278C38.4067 16.1728 38.6812 15.7729 39.0603 15.4915L41.2472 13.8744C41.8858 15.237 42.8922 16.3942 44.1529 17.2157ZM30.4343 5.03794C30.4036 4.79362 30.4382 4.54553 30.5346 4.31892C30.6309 4.09232 30.7856 3.8953 30.9829 3.74792C31.2338 3.5708 31.5334 3.47571 31.8406 3.47571C32.1477 3.47571 32.4473 3.5708 32.6982 3.74792C35.8829 6.12945 38.5571 9.12608 40.5623 12.5602L38.1883 14.3159C37.7632 14.6319 37.4137 15.0385 37.1654 15.5063C36.917 15.9742 36.7759 16.4915 36.7524 17.0206C32.5105 19.0976 29.1063 22.5626 27.1048 26.8406C21.8736 29.8284 19.9602 32.0681 18.1172 34.2294C16.6339 36.0726 14.921 37.7187 13.0202 39.1276C8.29946 42.6178 4.82471 42.0611 3.6689 41.7164C3.44146 41.0471 3.41863 40.3251 3.60333 39.6428C3.78803 38.9604 4.17189 38.3485 4.7059 37.8853L9.20078 34.0409L15.8012 31.1719C16.5249 30.856 17.1755 30.394 17.7125 29.8151C18.2494 29.2361 18.6611 28.5525 18.9217 27.8072L23.8537 13.6823C25.4744 13.4841 27.0171 12.873 28.3339 11.9075C30.6309 10.2061 30.636 6.87358 30.4343 5.03794Z" fill="black"/>
<path d="M32.379 24.0219C32.284 24.0384 32.1932 24.0735 32.1117 24.1251C32.0303 24.1767 31.9598 24.2439 31.9044 24.3228C31.8489 24.4017 31.8096 24.4907 31.7886 24.5848C31.7676 24.6789 31.7654 24.7762 31.782 24.8712L32.0563 26.4399C32.086 26.6099 32.1747 26.7641 32.3068 26.8751C32.439 26.9862 32.6061 27.0471 32.7787 27.0471C32.8212 27.0469 32.8636 27.0435 32.9056 27.0369C33.0005 27.0203 33.0912 26.9852 33.1726 26.9335C33.2539 26.8819 33.3243 26.8147 33.3797 26.7358C33.4351 26.6569 33.4743 26.5679 33.4953 26.4739C33.5162 26.3798 33.5185 26.2825 33.5018 26.1876L33.2275 24.6189C33.1931 24.4278 33.0848 24.2579 32.9259 24.1461C32.767 24.0343 32.5705 23.9897 32.379 24.0219Z" fill="black"/>
<path d="M35.2429 21.9041C35.0513 21.9376 34.8809 22.0458 34.7691 22.2049C34.6573 22.364 34.6132 22.561 34.6467 22.7526L34.9202 24.3213C34.9497 24.4914 35.0383 24.6456 35.1703 24.7568C35.3023 24.868 35.4693 24.9291 35.6419 24.9293C35.6844 24.9292 35.7268 24.9255 35.7687 24.9183C35.9596 24.8848 36.1294 24.7771 36.2411 24.6188C36.3528 24.4605 36.3973 24.2645 36.365 24.0734L36.0914 22.504C36.0758 22.4086 36.0414 22.3172 35.9901 22.2352C35.9389 22.1531 35.8718 22.0822 35.7928 22.0263C35.7138 21.9705 35.6246 21.9309 35.5301 21.9099C35.4357 21.889 35.3381 21.887 35.2429 21.9041Z" fill="black"/>
</svg>
